<svg width="40" height="31" viewBox="0 0 40 31" fill="none" xmlns="http://www.w3.org/2000/svg">
<path d="M5.94356 30.0019C5.50368 30.0019 5.16378 29.7232 5.03381 29.2571C4.92259 28.8584 5.04881 28.516 5.45745 28.1099C6.40094 27.1714 7.34318 26.2292 8.28292 25.2869C8.38289 25.1869 8.47536 25.0845 8.58158 24.967C8.63407 24.9083 8.6903 24.847 8.75279 24.7783L8.95773 24.5559L8.7003 24.3959C5.93481 22.6839 3.61045 20.5657 1.59476 17.9202C1.23736 17.4503 0.903701 16.9455 0.58129 16.4569C0.463822 16.2794 0.347604 16.1032 0.228887 15.927C-0.0672817 15.4859 -0.0760293 15.061 0.202644 14.6261C4.13406 8.50779 9.0827 4.86255 15.3322 3.48293C16.8393 3.15052 18.3564 2.98182 19.8422 2.98182C22.5852 2.98182 25.3245 3.55666 27.985 4.68885C28.1637 4.76507 28.3112 4.80006 28.4499 4.80006C28.6898 4.80006 28.9035 4.69509 29.1222 4.46891C30.0794 3.47543 31.0754 2.48695 32.0401 1.52972L32.595 0.978618C32.9099 0.666204 33.241 0.5 33.5547 0.5C33.7984 0.5 34.0221 0.599972 34.2183 0.797418C34.6606 1.2423 34.5894 1.86587 34.0308 2.42447C25.9768 10.481 16.4544 20.0034 6.8908 29.5607C6.60588 29.8457 6.26972 30.0019 5.94356 30.0019ZM19.7423 5.01001C18.114 5.01001 16.4607 5.23744 14.8286 5.68482C10.2799 6.93198 6.47092 9.61124 3.18307 13.8763C2.18085 15.176 2.1821 15.3309 3.19057 16.6406C5.11754 19.1449 7.39566 21.1843 9.95871 22.7014C10.0774 22.7714 10.2536 22.8138 10.4311 22.8138C10.5648 22.8138 10.751 22.7901 10.876 22.6739C11.6545 21.9516 12.4205 21.2018 13.1616 20.4757C13.3815 20.2596 13.6015 20.0446 13.8201 19.8309L13.9689 19.686L13.8539 19.5135C11.5608 16.0607 12.478 12.4255 14.4062 10.3548C15.5034 9.17636 16.8218 8.42906 18.3227 8.13415C18.8175 8.03667 19.3111 7.98794 19.7935 7.98794C21.2393 7.98794 22.6127 8.42282 23.8761 9.27883L24.0448 9.3938L27.019 6.4846L26.6554 6.34464C24.3572 5.45863 22.0304 5.01001 19.741 5.01001H19.7423ZM19.786 10.0099C18.3714 10.0099 16.9918 10.5947 16.002 11.6132C14.3412 13.3227 14.0013 16.0757 15.2435 17.7502L15.416 17.9827L22.4878 10.8996L22.2391 10.7297C21.548 10.2586 20.6995 10.0099 19.7847 10.0099H19.786Z" fill="white"/>
<path d="M19.771 27.5189C17.859 27.5189 15.9358 27.2427 13.9026 26.6778C13.9801 26.6041 14.055 26.5304 14.13 26.4591C14.6349 25.973 15.111 25.5132 15.5884 25.0783C15.5984 25.0708 15.6559 25.0508 15.7383 25.0508C15.7658 25.0508 15.7921 25.0533 15.8121 25.057C17.1979 25.3395 18.575 25.4832 19.9059 25.4832C24.3897 25.4832 28.6323 23.8536 32.5175 20.6382C34.0708 19.3524 35.4941 17.8115 36.8675 15.9258C37.2174 15.4447 37.2212 15.0748 36.8775 14.6062C35.2967 12.443 33.5822 10.671 31.6377 9.1889C31.6065 9.16516 31.5752 9.14017 31.5402 9.11017C31.6115 9.03894 31.6814 8.96771 31.7514 8.89648C32.1663 8.47785 32.5587 8.08046 32.9736 7.70056C33.0461 7.71306 33.1648 7.75805 33.2185 7.80053C35.2305 9.38885 36.9837 11.2396 38.4271 13.3028C38.6395 13.6064 38.8457 13.9251 39.0457 14.2338C39.1244 14.355 39.2031 14.4774 39.2831 14.5987C39.5755 15.0448 39.578 15.4597 39.2906 15.9033C35.043 22.4627 29.6745 26.1805 22.8776 27.2702C21.8479 27.4351 20.8019 27.5189 19.7685 27.5189H19.771Z" fill="white"/>
<path d="M19.7772 22.5001C19.2524 22.5001 18.745 22.4351 18.2864 22.3114C18.3839 22.2165 18.4801 22.1215 18.575 22.0278C19.0887 21.5241 19.5735 21.0493 20.0721 20.5907C20.1734 20.4969 20.3596 20.4195 20.547 20.3907C22.8214 20.0521 24.5247 18.3388 24.8871 16.0257C24.9258 15.7807 24.987 15.6845 25.0195 15.6483C25.5119 15.1197 26.0092 14.6111 26.5341 14.0737C26.6203 13.985 26.7078 13.8962 26.7953 13.8063C27.3801 15.6245 26.6953 18.3925 25.1907 20.072C23.8298 21.5916 21.8054 22.5001 19.7772 22.5001Z" fill="white"/>
</svg>
