<svg width="40" height="25" viewBox="0 0 40 25" fill="none" xmlns="http://www.w3.org/2000/svg">
<path d="M19.6673 24.5849C13.3221 24.5123 7.77792 21.919 3.19033 16.8776C2.40311 16.0115 1.70307 15.0278 1.02546 14.0766C0.768862 13.7161 0.503547 13.3432 0.235741 12.9802C-0.0769081 12.5572 -0.0781537 12.1166 0.229512 11.6335C4.0523 5.63965 8.8342 2.03383 14.8493 0.608271C16.5545 0.204008 18.2548 0 19.904 0C24.2574 0 28.4327 1.42055 32.3102 4.22035C34.8961 6.08771 37.1532 8.50202 39.0191 11.3957C39.4376 12.0453 39.4414 12.5672 39.0303 13.1955C35.4766 18.6361 31.0447 22.0967 25.4818 23.7764C23.7043 24.3133 21.7823 24.5849 19.7719 24.5849H19.6673ZM19.8591 2.03883C17.9496 2.03883 15.9778 2.35173 13.9973 2.96751C9.52552 4.36052 5.77373 7.24543 2.52642 11.7887C2.1627 12.2981 2.4193 12.6585 2.58995 12.8976C3.94517 14.7988 5.40503 16.387 7.04924 17.7562C10.8832 20.9453 15.0585 22.516 19.8143 22.5561C21.7425 22.5285 23.5661 22.2419 25.2426 21.705C29.8203 20.2369 33.6132 17.3395 36.8356 12.8475C37.1744 12.3744 37.0137 12.0202 36.8119 11.7361C35.2462 9.53833 33.5633 7.76734 31.6675 6.32176C27.9394 3.47941 23.9671 2.03758 19.8591 2.03758V2.03883Z" fill="white"/>
<path d="M20.126 19.6679C16.074 19.6615 12.7804 16.3447 12.7842 12.2734C12.788 8.21725 16.1159 4.91696 20.2022 4.91696H20.2289C24.2669 4.93094 27.544 8.26298 27.5351 12.3445C27.5262 16.3829 24.2072 19.6679 20.1387 19.6679H20.1273H20.126ZM20.1654 6.96853C17.2413 6.96853 14.8508 9.34402 14.8368 12.2645C14.8229 15.1786 17.1766 17.5795 20.0841 17.6163H20.1514C23.0627 17.6163 25.4558 15.2574 25.485 12.3559C25.499 10.9345 24.954 9.58919 23.9493 8.56659C22.9484 7.54779 21.621 6.97996 20.2098 6.96853H20.1666H20.1654Z" fill="white"/>
</svg>
