<svg width="33" height="36" viewBox="0 0 33 36" fill="none" xmlns="http://www.w3.org/2000/svg">
<path d="M23.898 12V8.55556C23.898 4.38274 20.4807 1 16.2653 1C12.0499 1 8.63265 4.38274 8.63265 8.55556V12M12.449 35H20.0816C25.4787 35 28.1773 35 29.8539 33.3403C31.5306 31.6805 31.5306 29.0093 31.5306 23.6667V19.8889C31.5306 16.3272 31.5306 14.5463 30.4128 13.4398C29.2951 12.3333 27.496 12.3333 23.898 12.3333H8.63265C5.03459 12.3333 3.23555 12.3333 2.11778 13.4398C1 14.5463 1 16.3272 1 19.8889V23.6667C1 29.0093 1 31.6805 2.67666 33.3403C4.35333 35 7.05188 35 12.449 35Z" stroke="white" stroke-width="2" stroke-linecap="round"/>
<circle cx="16" cy="24" r="2" fill="white"/>
</svg>
